<?xml version="1.0" encoding="UTF-8"?>
<!--Generator: Apple Native CoreSVG 123-->
<!DOCTYPE svg
PUBLIC "-//W3C//DTD SVG 1.1//EN"
       "http://www.w3.org/Graphics/SVG/1.1/DTD/svg11.dtd">
<svg version="1.1" xmlns="http://www.w3.org/2000/svg" xmlns:xlink="http://www.w3.org/1999/xlink" width="3300" height="2200">
 <!--glyph: "uni10017F.medium", point size: 100.000000, font version: "Version 15.0d7e11", template writer version: "5"-->
 <g id="Notes">
  <rect height="2200" id="artboard" style="fill:white;opacity:1" width="3300" x="0" y="0"/>
  <line id="" style="fill:none;stroke:black;opacity:1;stroke-width:0.5;" x1="263" x2="3036" y1="292" y2="292"/>
  <text style="stroke:none;fill:black;font-family:-apple-system,&quot;SF Pro Display&quot;,&quot;SF Pro Text&quot;,Helvetica,sans-serif;font-weight:bold;" transform="matrix(1 0 0 1 263 322)">Weight/Scale Variations</text>
  <text style="stroke:none;fill:black;font-family:-apple-system,&quot;SF Pro Display&quot;,&quot;SF Pro Text&quot;,Helvetica,sans-serif;text-anchor:middle;" transform="matrix(1 0 0 1 559.711 322)">Ultralight</text>
  <text style="stroke:none;fill:black;font-family:-apple-system,&quot;SF Pro Display&quot;,&quot;SF Pro Text&quot;,Helvetica,sans-serif;text-anchor:middle;" transform="matrix(1 0 0 1 856.422 322)">Thin</text>
  <text style="stroke:none;fill:black;font-family:-apple-system,&quot;SF Pro Display&quot;,&quot;SF Pro Text&quot;,Helvetica,sans-serif;text-anchor:middle;" transform="matrix(1 0 0 1 1153.13 322)">Light</text>
  <text style="stroke:none;fill:black;font-family:-apple-system,&quot;SF Pro Display&quot;,&quot;SF Pro Text&quot;,Helvetica,sans-serif;text-anchor:middle;" transform="matrix(1 0 0 1 1449.84 322)">Regular</text>
  <text style="stroke:none;fill:black;font-family:-apple-system,&quot;SF Pro Display&quot;,&quot;SF Pro Text&quot;,Helvetica,sans-serif;text-anchor:middle;" transform="matrix(1 0 0 1 1746.56 322)">Medium</text>
  <text style="stroke:none;fill:black;font-family:-apple-system,&quot;SF Pro Display&quot;,&quot;SF Pro Text&quot;,Helvetica,sans-serif;text-anchor:middle;" transform="matrix(1 0 0 1 2043.27 322)">Semibold</text>
  <text style="stroke:none;fill:black;font-family:-apple-system,&quot;SF Pro Display&quot;,&quot;SF Pro Text&quot;,Helvetica,sans-serif;text-anchor:middle;" transform="matrix(1 0 0 1 2339.98 322)">Bold</text>
  <text style="stroke:none;fill:black;font-family:-apple-system,&quot;SF Pro Display&quot;,&quot;SF Pro Text&quot;,Helvetica,sans-serif;text-anchor:middle;" transform="matrix(1 0 0 1 2636.69 322)">Heavy</text>
  <text style="stroke:none;fill:black;font-family:-apple-system,&quot;SF Pro Display&quot;,&quot;SF Pro Text&quot;,Helvetica,sans-serif;text-anchor:middle;" transform="matrix(1 0 0 1 2933.4 322)">Black</text>
  <line id="" style="fill:none;stroke:black;opacity:1;stroke-width:0.5;" x1="263" x2="3036" y1="1903" y2="1903"/>
  <g id="" transform="matrix(1 0 0 1 263 1933)">
   <path d="M 9.24805 0.830078 C 13.5547 0.830078 17.1387 -2.74414 17.1387 -7.05078 C 17.1387 -11.3574 13.5449 -14.9316 9.23828 -14.9316 C 4.94141 -14.9316 1.36719 -11.3574 1.36719 -7.05078 C 1.36719 -2.74414 4.95117 0.830078 9.24805 0.830078 Z M 9.24805 -0.654297 C 5.70312 -0.654297 2.87109 -3.49609 2.87109 -7.05078 C 2.87109 -10.6055 5.69336 -13.4473 9.23828 -13.4473 C 12.793 -13.4473 15.6348 -10.6055 15.6445 -7.05078 C 15.6543 -3.49609 12.8027 -0.654297 9.24805 -0.654297 Z M 9.22852 -3.42773 C 9.69727 -3.42773 9.9707 -3.74023 9.9707 -4.25781 L 9.9707 -6.31836 L 12.1973 -6.31836 C 12.6953 -6.31836 13.0371 -6.57227 13.0371 -7.04102 C 13.0371 -7.51953 12.7148 -7.7832 12.1973 -7.7832 L 9.9707 -7.7832 L 9.9707 -10.0098 C 9.9707 -10.5273 9.69727 -10.8496 9.22852 -10.8496 C 8.75977 -10.8496 8.50586 -10.5078 8.50586 -10.0098 L 8.50586 -7.7832 L 6.29883 -7.7832 C 5.78125 -7.7832 5.44922 -7.51953 5.44922 -7.04102 C 5.44922 -6.57227 5.80078 -6.31836 6.29883 -6.31836 L 8.50586 -6.31836 L 8.50586 -4.25781 C 8.50586 -3.75977 8.75977 -3.42773 9.22852 -3.42773 Z"/>
  </g>
  <g id="" transform="matrix(1 0 0 1 281.506 1933)">
   <path d="M 11.709 2.91016 C 17.1582 2.91016 21.6699 -1.60156 21.6699 -7.05078 C 21.6699 -12.4902 17.1484 -17.0117 11.6992 -17.0117 C 6.25977 -17.0117 1.74805 -12.4902 1.74805 -7.05078 C 1.74805 -1.60156 6.26953 2.91016 11.709 2.91016 Z M 11.709 1.25 C 7.09961 1.25 3.41797 -2.44141 3.41797 -7.05078 C 3.41797 -11.6504 7.08984 -15.3516 11.6992 -15.3516 C 16.3086 -15.3516 20 -11.6504 20.0098 -7.05078 C 20.0195 -2.44141 16.3184 1.25 11.709 1.25 Z M 11.6895 -2.41211 C 12.207 -2.41211 12.5195 -2.77344 12.5195 -3.33984 L 12.5195 -6.23047 L 15.5762 -6.23047 C 16.123 -6.23047 16.5039 -6.51367 16.5039 -7.03125 C 16.5039 -7.55859 16.1426 -7.86133 15.5762 -7.86133 L 12.5195 -7.86133 L 12.5195 -10.9277 C 12.5195 -11.5039 12.207 -11.8555 11.6895 -11.8555 C 11.1719 -11.8555 10.8789 -11.4844 10.8789 -10.9277 L 10.8789 -7.86133 L 7.83203 -7.86133 C 7.26562 -7.86133 6.89453 -7.55859 6.89453 -7.03125 C 6.89453 -6.51367 7.28516 -6.23047 7.83203 -6.23047 L 10.8789 -6.23047 L 10.8789 -3.33984 C 10.8789 -2.79297 11.1719 -2.41211 11.6895 -2.41211 Z"/>
  </g>
  <g id="" transform="matrix(1 0 0 1 304.924 1933)">
   <path d="M 14.9707 5.67383 C 21.9336 5.67383 27.6953 -0.078125 27.6953 -7.04102 C 27.6953 -14.0039 21.9238 -19.7559 14.9609 -19.7559 C 8.00781 -19.7559 2.25586 -14.0039 2.25586 -7.04102 C 2.25586 -0.078125 8.01758 5.67383 14.9707 5.67383 Z M 14.9707 3.85742 C 8.93555 3.85742 4.08203 -1.00586 4.08203 -7.04102 C 4.08203 -13.0762 8.92578 -17.9395 14.9609 -17.9395 C 21.0059 -17.9395 25.8594 -13.0762 25.8691 -7.04102 C 25.8789 -1.00586 21.0156 3.85742 14.9707 3.85742 Z M 14.9512 -1.06445 C 15.5176 -1.06445 15.8691 -1.45508 15.8691 -2.06055 L 15.8691 -6.13281 L 20.1074 -6.13281 C 20.6934 -6.13281 21.1133 -6.46484 21.1133 -7.02148 C 21.1133 -7.59766 20.7227 -7.93945 20.1074 -7.93945 L 15.8691 -7.93945 L 15.8691 -12.1875 C 15.8691 -12.8027 15.5176 -13.1934 14.9512 -13.1934 C 14.3848 -13.1934 14.0625 -12.7832 14.0625 -12.1875 L 14.0625 -7.93945 L 9.83398 -7.93945 C 9.21875 -7.93945 8.80859 -7.59766 8.80859 -7.02148 C 8.80859 -6.46484 9.23828 -6.13281 9.83398 -6.13281 L 14.0625 -6.13281 L 14.0625 -2.06055 C 14.0625 -1.47461 14.3848 -1.06445 14.9512 -1.06445 Z"/>
  </g>
  <text style="stroke:none;fill:black;font-family:-apple-system,&quot;SF Pro Display&quot;,&quot;SF Pro Text&quot;,Helvetica,sans-serif;font-weight:bold;" transform="matrix(1 0 0 1 263 1953)">Design Variations</text>
  <text style="stroke:none;fill:black;font-family:-apple-system,&quot;SF Pro Display&quot;,&quot;SF Pro Text&quot;,Helvetica,sans-serif;" transform="matrix(1 0 0 1 263 1971)">Symbols are supported in up to nine weights and three scales.</text>
  <text style="stroke:none;fill:black;font-family:-apple-system,&quot;SF Pro Display&quot;,&quot;SF Pro Text&quot;,Helvetica,sans-serif;" transform="matrix(1 0 0 1 263 1989)">For optimal layout with text and other symbols, vertically align</text>
  <text style="stroke:none;fill:black;font-family:-apple-system,&quot;SF Pro Display&quot;,&quot;SF Pro Text&quot;,Helvetica,sans-serif;" transform="matrix(1 0 0 1 263 2007)">symbols with the adjacent text.</text>
  <rect height="14" id="" style="fill:#00AEEF;stroke:none;opacity:0.4;" width="3" x="776" y="1919"/>
  <g id="" transform="matrix(1 0 0 1 779 1933)">
   <path d="M 10.5273 0 L 12.373 0 L 7.17773 -14.0918 L 5.43945 -14.0918 L 0.244141 0 L 2.08984 0 L 3.50586 -4.0332 L 9.11133 -4.0332 Z M 6.2793 -11.9531 L 6.33789 -11.9531 L 8.59375 -5.52734 L 4.02344 -5.52734 Z"/>
  </g>
  <rect height="14" id="" style="fill:#00AEEF;stroke:none;opacity:0.4;" width="3" x="791.617" y="1919"/>
  <text style="stroke:none;fill:black;font-family:-apple-system,&quot;SF Pro Display&quot;,&quot;SF Pro Text&quot;,Helvetica,sans-serif;font-weight:bold;" transform="matrix(1 0 0 1 776 1953)">Margins</text>
  <text style="stroke:none;fill:black;font-family:-apple-system,&quot;SF Pro Display&quot;,&quot;SF Pro Text&quot;,Helvetica,sans-serif;" transform="matrix(1 0 0 1 776 1971)">Leading and trailing margins on the left and right side of each symbol</text>
  <text style="stroke:none;fill:black;font-family:-apple-system,&quot;SF Pro Display&quot;,&quot;SF Pro Text&quot;,Helvetica,sans-serif;" transform="matrix(1 0 0 1 776 1989)">can be adjusted by modifying the width of the blue rectangles.</text>
  <text style="stroke:none;fill:black;font-family:-apple-system,&quot;SF Pro Display&quot;,&quot;SF Pro Text&quot;,Helvetica,sans-serif;" transform="matrix(1 0 0 1 776 2007)">Modifications are automatically applied proportionally to all</text>
  <text style="stroke:none;fill:black;font-family:-apple-system,&quot;SF Pro Display&quot;,&quot;SF Pro Text&quot;,Helvetica,sans-serif;" transform="matrix(1 0 0 1 776 2025)">scales and weights.</text>
  <g id="" transform="matrix(1 0 0 1 1289 1933)">
   <path d="M 2.83203 3.11523 L 4.375 4.6582 C 5.22461 5.48828 6.19141 5.41992 7.06055 4.46289 L 17.2754 -6.66016 C 17.7051 -6.36719 18.0957 -6.37695 18.5645 -6.47461 L 19.6094 -6.68945 L 20.3027 -5.99609 L 20.2539 -5.47852 C 20.1855 -4.95117 20.3516 -4.53125 20.8496 -4.0332 L 21.6602 -3.22266 C 22.168 -2.71484 22.8223 -2.68555 23.3008 -3.16406 L 26.5527 -6.41602 C 27.0312 -6.89453 27.0117 -7.54883 26.5039 -8.05664 L 25.6836 -8.87695 C 25.1855 -9.375 24.7754 -9.55078 24.2383 -9.47266 L 23.7109 -9.41406 L 23.0566 -10.0781 L 23.3398 -11.2207 C 23.4863 -11.7871 23.3398 -12.2559 22.7148 -12.8613 L 20.3027 -15.2539 C 16.7578 -18.7793 12.2266 -18.6719 9.11133 -15.5371 C 8.69141 -15.1074 8.64258 -14.5215 8.91602 -14.0918 C 9.15039 -13.7207 9.62891 -13.4961 10.2734 -13.6621 C 11.7871 -14.043 13.3008 -13.9258 14.7852 -12.9199 L 14.1602 -11.3379 C 13.9258 -10.752 13.9453 -10.2734 14.1797 -9.83398 L 3.01758 0.439453 C 2.08008 1.30859 1.97266 2.25586 2.83203 3.11523 Z M 10.6738 -15.1465 C 13.3398 -17.1387 16.6504 -16.8262 19.0527 -14.4141 L 21.6797 -11.8066 C 21.9141 -11.5723 21.9434 -11.3867 21.8848 -11.0938 L 21.5039 -9.53125 L 23.0762 -7.95898 L 24.043 -8.04688 C 24.3262 -8.07617 24.4141 -8.05664 24.6387 -7.83203 L 25.2637 -7.20703 L 22.5098 -4.46289 L 21.8848 -5.07812 C 21.6602 -5.30273 21.6406 -5.40039 21.6699 -5.68359 L 21.7578 -6.64062 L 20.1953 -8.20312 L 18.5742 -7.89062 C 18.291 -7.83203 18.1445 -7.83203 17.9102 -8.07617 L 15.7324 -10.2539 C 15.5078 -10.4883 15.4785 -10.625 15.6055 -10.9473 L 16.5527 -13.2227 C 14.9512 -14.7559 12.8418 -15.6055 10.8008 -14.9512 C 10.7129 -14.9219 10.6445 -14.9414 10.6152 -14.9805 C 10.5859 -15.0293 10.5859 -15.0781 10.6738 -15.1465 Z M 4.10156 2.41211 C 3.61328 1.91406 3.78906 1.61133 4.12109 1.30859 L 15.0781 -8.80859 L 16.3086 -7.57812 L 6.15234 3.34961 C 5.84961 3.68164 5.46875 3.7793 5.06836 3.37891 Z"/>
  </g>
  <text style="stroke:none;fill:black;font-family:-apple-system,&quot;SF Pro Display&quot;,&quot;SF Pro Text&quot;,Helvetica,sans-serif;font-weight:bold;" transform="matrix(1 0 0 1 1289 1953)">Exporting</text>
  <text style="stroke:none;fill:black;font-family:-apple-system,&quot;SF Pro Display&quot;,&quot;SF Pro Text&quot;,Helvetica,sans-serif;" transform="matrix(1 0 0 1 1289 1971)">Symbols should be outlined when exporting to ensure the</text>
  <text style="stroke:none;fill:black;font-family:-apple-system,&quot;SF Pro Display&quot;,&quot;SF Pro Text&quot;,Helvetica,sans-serif;" transform="matrix(1 0 0 1 1289 1989)">design is preserved when submitting to Xcode.</text>
  <text id="template-version" style="stroke:none;fill:black;font-family:-apple-system,&quot;SF Pro Display&quot;,&quot;SF Pro Text&quot;,Helvetica,sans-serif;text-anchor:end;" transform="matrix(1 0 0 1 3036 1933)">Template v.1.0</text>
  <text style="stroke:none;fill:black;font-family:-apple-system,&quot;SF Pro Display&quot;,&quot;SF Pro Text&quot;,Helvetica,sans-serif;text-anchor:end;" transform="matrix(1 0 0 1 3036 1951)">Generated from divide</text>
  <text style="stroke:none;fill:black;font-family:-apple-system,&quot;SF Pro Display&quot;,&quot;SF Pro Text&quot;,Helvetica,sans-serif;text-anchor:end;" transform="matrix(1 0 0 1 3036 1969)">Typeset at 100 points</text>
  <text style="stroke:none;fill:black;font-family:-apple-system,&quot;SF Pro Display&quot;,&quot;SF Pro Text&quot;,Helvetica,sans-serif;" transform="matrix(1 0 0 1 263 726)">Small</text>
  <text style="stroke:none;fill:black;font-family:-apple-system,&quot;SF Pro Display&quot;,&quot;SF Pro Text&quot;,Helvetica,sans-serif;" transform="matrix(1 0 0 1 263 1156)">Medium</text>
  <text style="stroke:none;fill:black;font-family:-apple-system,&quot;SF Pro Display&quot;,&quot;SF Pro Text&quot;,Helvetica,sans-serif;" transform="matrix(1 0 0 1 263 1586)">Large</text>
 </g>
 <g id="Guides">
  <g id="H-reference" style="fill:#27AAE1;stroke:none;" transform="matrix(1 0 0 1 339 696)">
   <path d="M 54.9316 0 L 57.666 0 L 30.5664 -70.459 L 28.0762 -70.459 L 0.976562 0 L 3.66211 0 L 12.9395 -24.4629 L 45.7031 -24.4629 Z M 29.1992 -67.0898 L 29.4434 -67.0898 L 44.8242 -26.709 L 13.8184 -26.709 Z"/>
  </g>
  <line id="Baseline-S" style="fill:none;stroke:#27AAE1;opacity:1;stroke-width:0.577;" x1="263" x2="3036" y1="696" y2="696"/>
  <line id="Capline-S" style="fill:none;stroke:#27AAE1;opacity:1;stroke-width:0.577;" x1="263" x2="3036" y1="625.541" y2="625.541"/>
  <g id="H-reference" style="fill:#27AAE1;stroke:none;" transform="matrix(1 0 0 1 339 1126)">
   <path d="M 54.9316 0 L 57.666 0 L 30.5664 -70.459 L 28.0762 -70.459 L 0.976562 0 L 3.66211 0 L 12.9395 -24.4629 L 45.7031 -24.4629 Z M 29.1992 -67.0898 L 29.4434 -67.0898 L 44.8242 -26.709 L 13.8184 -26.709 Z"/>
  </g>
  <line id="Baseline-M" style="fill:none;stroke:#27AAE1;opacity:1;stroke-width:0.577;" x1="263" x2="3036" y1="1126" y2="1126"/>
  <line id="Capline-M" style="fill:none;stroke:#27AAE1;opacity:1;stroke-width:0.577;" x1="263" x2="3036" y1="1055.54" y2="1055.54"/>
  <g id="H-reference" style="fill:#27AAE1;stroke:none;" transform="matrix(1 0 0 1 339 1556)">
   <path d="M 54.9316 0 L 57.666 0 L 30.5664 -70.459 L 28.0762 -70.459 L 0.976562 0 L 3.66211 0 L 12.9395 -24.4629 L 45.7031 -24.4629 Z M 29.1992 -67.0898 L 29.4434 -67.0898 L 44.8242 -26.709 L 13.8184 -26.709 Z"/>
  </g>
  <line id="Baseline-L" style="fill:none;stroke:#27AAE1;opacity:1;stroke-width:0.577;" x1="263" x2="3036" y1="1556" y2="1556"/>
  <line id="Capline-L" style="fill:none;stroke:#27AAE1;opacity:1;stroke-width:0.577;" x1="263" x2="3036" y1="1485.54" y2="1485.54"/>
  <rect height="119.336" id="left-margin" style="fill:#00AEEF;stroke:none;opacity:0.4;" width="12.4512" x="1397.11" y="1030.79"/>
  <rect height="119.336" id="right-margin" style="fill:#00AEEF;stroke:none;opacity:0.4;" width="12.4512" x="1490.13" y="1030.79"/>
 </g>
 <g id="Symbols">
  <g id="Black-L" transform="matrix(1 0 0 1 2862.14 1556)">
   <path d="M 71.1914 -58.6426 C 79.1504 -58.6426 85.498 -64.209 85.498 -72.4121 C 85.498 -80.4688 79.1504 -86.4258 71.1914 -86.4258 C 63.1836 -86.4258 57.0312 -80.4688 57.0312 -72.4121 C 57.0312 -64.209 63.1836 -58.6426 71.1914 -58.6426 Z M 27.8809 -23.0957 L 114.648 -23.0957 C 120.947 -23.0957 126.465 -28.6133 126.465 -35.2051 C 126.465 -41.748 120.947 -47.2656 114.648 -47.2656 L 27.8809 -47.2656 C 21.875 -47.2656 16.0645 -41.748 16.0645 -35.2051 C 16.0645 -28.6133 21.875 -23.0957 27.8809 -23.0957 Z M 71.1914 17.3828 C 79.1504 17.3828 85.498 11.7188 85.498 3.56445 C 85.498 -4.44336 79.1504 -10.4492 71.1914 -10.4492 C 63.1836 -10.4492 57.0312 -4.44336 57.0312 3.56445 C 57.0312 11.7188 63.1836 17.3828 71.1914 17.3828 Z"/>
  </g>
  <g id="Heavy-L" transform="matrix(1 0 0 1 2566.33 1556)">
   <path d="M 70.3125 -59.668 C 77.4902 -59.668 83.252 -64.8438 83.252 -72.168 C 83.252 -79.4434 77.4902 -84.9121 70.3125 -84.9121 C 63.0859 -84.9121 57.5195 -79.4434 57.5195 -72.168 C 57.5195 -64.8438 63.0859 -59.668 70.3125 -59.668 Z M 26.2207 -24.8535 L 114.502 -24.8535 C 119.922 -24.8535 124.658 -29.541 124.658 -35.2051 C 124.658 -40.8203 119.922 -45.5078 114.502 -45.5078 L 26.2207 -45.5078 C 21.0449 -45.5078 16.0645 -40.8203 16.0645 -35.2051 C 16.0645 -29.541 21.0449 -24.8535 26.2207 -24.8535 Z M 70.3125 15.625 C 77.4902 15.625 83.252 10.4004 83.252 3.07617 C 83.252 -4.15039 77.4902 -9.61914 70.3125 -9.61914 C 63.0859 -9.61914 57.5195 -4.15039 57.5195 3.07617 C 57.5195 10.4004 63.0859 15.625 70.3125 15.625 Z"/>
  </g>
  <g id="Bold-L" transform="matrix(1 0 0 1 2270.62 1556)">
   <path d="M 69.3359 -60.8398 C 75.6348 -60.8398 80.7129 -65.5273 80.7129 -71.9238 C 80.7129 -78.2715 75.6348 -83.2031 69.3359 -83.2031 C 62.9883 -83.2031 58.0078 -78.2715 58.0078 -71.9238 C 58.0078 -65.5273 62.9883 -60.8398 69.3359 -60.8398 Z M 24.3652 -26.7578 L 114.355 -26.7578 C 118.799 -26.7578 122.656 -30.5664 122.656 -35.1562 C 122.656 -39.7461 118.799 -43.6035 114.355 -43.6035 L 24.3652 -43.6035 C 20.0684 -43.6035 16.0645 -39.7461 16.0645 -35.1562 C 16.0645 -30.5664 20.0684 -26.7578 24.3652 -26.7578 Z M 69.3359 13.6719 C 75.6348 13.6719 80.7129 8.88672 80.7129 2.49023 C 80.7129 -3.80859 75.6348 -8.74023 69.3359 -8.74023 C 62.9883 -8.74023 58.0078 -3.80859 58.0078 2.49023 C 58.0078 8.88672 62.9883 13.6719 69.3359 13.6719 Z"/>
  </g>
  <g id="Semibold-L" transform="matrix(1 0 0 1 1974.59 1556)">
   <path d="M 68.6523 -61.6211 C 74.3652 -61.6211 78.9551 -66.0156 78.9551 -71.7285 C 78.9551 -77.4902 74.3652 -82.0312 68.6523 -82.0312 C 62.9395 -82.0312 58.3984 -77.4902 58.3984 -71.7285 C 58.3984 -66.0156 62.9395 -61.6211 68.6523 -61.6211 Z M 23.0957 -28.0762 L 114.258 -28.0762 C 118.018 -28.0762 121.289 -31.2988 121.289 -35.1562 C 121.289 -39.0137 118.018 -42.2363 114.258 -42.2363 L 23.0957 -42.2363 C 19.4336 -42.2363 16.0645 -39.0137 16.0645 -35.1562 C 16.0645 -31.2988 19.4336 -28.0762 23.0957 -28.0762 Z M 68.6523 12.3047 C 74.3652 12.3047 78.9551 7.91016 78.9551 2.09961 C 78.9551 -3.56445 74.3652 -8.10547 68.6523 -8.10547 C 62.9395 -8.10547 58.3984 -3.56445 58.3984 2.09961 C 58.3984 7.91016 62.9395 12.3047 68.6523 12.3047 Z"/>
  </g>
  <g id="Medium-L" transform="matrix(1 0 0 1 1678.42 1556)">
   <path d="M 68.1152 -62.2559 C 73.3887 -62.2559 77.6367 -66.3574 77.6367 -71.6309 C 77.6367 -76.9043 73.3887 -81.1035 68.1152 -81.1035 C 62.8906 -81.1035 58.6426 -76.9043 58.6426 -71.6309 C 58.6426 -66.3574 62.8906 -62.2559 68.1152 -62.2559 Z M 22.1191 -29.1016 L 114.16 -29.1016 C 117.432 -29.1016 120.215 -31.8359 120.215 -35.1562 C 120.215 -38.4766 117.432 -41.2598 114.16 -41.2598 L 22.1191 -41.2598 C 18.9453 -41.2598 16.0645 -38.4766 16.0645 -35.1562 C 16.0645 -31.8359 18.9453 -29.1016 22.1191 -29.1016 Z M 68.1152 11.2793 C 73.3887 11.2793 77.6367 7.12891 77.6367 1.80664 C 77.6367 -3.36914 73.3887 -7.61719 68.1152 -7.61719 C 62.8906 -7.61719 58.6426 -3.36914 58.6426 1.80664 C 58.6426 7.12891 62.8906 11.2793 68.1152 11.2793 Z"/>
  </g>
  <g id="Regular-L" transform="matrix(1 0 0 1 1382.39 1556)">
   <path d="M 67.4316 -63.0371 C 72.1191 -63.0371 75.9277 -66.8457 75.9277 -71.4355 C 75.9277 -76.123 72.1191 -79.9316 67.4316 -79.9316 C 62.8418 -79.9316 58.9844 -76.123 58.9844 -71.4355 C 58.9844 -66.8457 62.8418 -63.0371 67.4316 -63.0371 Z M 20.8496 -30.3711 L 114.062 -30.3711 C 116.65 -30.3711 118.848 -32.5684 118.848 -35.1562 C 118.848 -37.793 116.65 -39.9414 114.062 -39.9414 L 20.8496 -39.9414 C 18.2617 -39.9414 16.0645 -37.793 16.0645 -35.1562 C 16.0645 -32.5684 18.2617 -30.3711 20.8496 -30.3711 Z M 67.4316 9.91211 C 72.1191 9.91211 75.9277 6.10352 75.9277 1.46484 C 75.9277 -3.17383 72.1191 -6.98242 67.4316 -6.98242 C 62.8418 -6.98242 58.9844 -3.17383 58.9844 1.46484 C 58.9844 6.10352 62.8418 9.91211 67.4316 9.91211 Z"/>
  </g>
  <g id="Light-L" transform="matrix(1 0 0 1 1086.48 1556)">
   <path d="M 66.6504 -63.4277 C 70.6543 -63.4277 73.9746 -66.748 73.9746 -70.6543 C 73.9746 -74.6582 70.6543 -78.0762 66.6504 -78.0762 C 62.6465 -78.0762 59.3262 -74.6582 59.3262 -70.6543 C 59.3262 -66.748 62.6465 -63.4277 66.6504 -63.4277 Z M 19.6289 -31.543 L 113.623 -31.543 C 115.576 -31.543 117.236 -33.1543 117.236 -35.1562 C 117.236 -37.1094 115.576 -38.7207 113.623 -38.7207 L 19.6289 -38.7207 C 17.7246 -38.7207 16.0645 -37.1094 16.0645 -35.1562 C 16.0645 -33.1543 17.7246 -31.543 19.6289 -31.543 Z M 66.6504 7.95898 C 70.6543 7.95898 73.9746 4.63867 73.9746 0.634766 C 73.9746 -3.27148 70.6543 -6.68945 66.6504 -6.68945 C 62.6465 -6.68945 59.3262 -3.27148 59.3262 0.634766 C 59.3262 4.63867 62.6465 7.95898 66.6504 7.95898 Z"/>
  </g>
  <g id="Thin-L" transform="matrix(1 0 0 1 790.846 1556)">
   <path d="M 65.5762 -63.916 C 68.7012 -63.916 71.4355 -66.6016 71.4355 -69.6289 C 71.4355 -72.7539 68.7012 -75.5859 65.5762 -75.5859 C 62.4512 -75.5859 59.7656 -72.7539 59.7656 -69.6289 C 59.7656 -66.6016 62.4512 -63.916 65.5762 -63.916 Z M 18.0664 -33.1055 L 113.037 -33.1055 C 114.16 -33.1055 115.088 -33.9844 115.088 -35.1074 C 115.088 -36.2305 114.16 -37.1582 113.037 -37.1582 L 18.0664 -37.1582 C 16.9922 -37.1582 16.0645 -36.2305 16.0645 -35.1074 C 16.0645 -33.9844 16.9922 -33.1055 18.0664 -33.1055 Z M 65.5762 5.37109 C 68.7012 5.37109 71.4355 2.73438 71.4355 -0.488281 C 71.4355 -3.4668 68.7012 -6.25 65.5762 -6.25 C 62.4512 -6.25 59.7656 -3.4668 59.7656 -0.488281 C 59.7656 2.73438 62.4512 5.37109 65.5762 5.37109 Z"/>
  </g>
  <g id="Ultralight-L" transform="matrix(1 0 0 1 494.696 1556)">
   <path d="M 65.0391 -64.209 C 67.6758 -64.209 70.1172 -66.5039 70.1172 -69.0918 C 70.1172 -71.7773 67.6758 -74.3164 65.0391 -74.3164 C 62.3535 -74.3164 60.0098 -71.7773 60.0098 -69.0918 C 60.0098 -66.5039 62.3535 -64.209 65.0391 -64.209 Z M 17.2852 -33.8867 L 112.744 -33.8867 C 113.428 -33.8867 113.965 -34.4238 113.965 -35.1074 C 113.965 -35.791 113.428 -36.3281 112.744 -36.3281 L 17.2852 -36.3281 C 16.6016 -36.3281 16.0645 -35.791 16.0645 -35.1074 C 16.0645 -34.4238 16.6016 -33.8867 17.2852 -33.8867 Z M 65.0391 4.05273 C 67.6758 4.05273 70.1172 1.70898 70.1172 -1.02539 C 70.1172 -3.56445 67.6758 -6.05469 65.0391 -6.05469 C 62.3535 -6.05469 60.0098 -3.56445 60.0098 -1.02539 C 60.0098 1.70898 62.3535 4.05273 65.0391 4.05273 Z"/>
  </g>
  <g id="Black-M" transform="matrix(1 0 0 1 2877.39 1126)">
   <path d="M 55.957 -52.1973 C 62.793 -52.1973 68.2617 -56.8359 68.2617 -63.916 C 68.2617 -70.8984 62.793 -75.9766 55.957 -75.9766 C 48.9746 -75.9766 43.75 -70.8984 43.75 -63.916 C 43.75 -56.8359 48.9746 -52.1973 55.957 -52.1973 Z M 23.2422 -24.1699 L 88.7695 -24.1699 C 94.5312 -24.1699 99.5605 -29.1992 99.5605 -35.2051 C 99.5605 -41.2109 94.5312 -46.2402 88.7695 -46.2402 L 23.2422 -46.2402 C 17.8223 -46.2402 12.4512 -41.2109 12.4512 -35.2051 C 12.4512 -29.1992 17.8223 -24.1699 23.2422 -24.1699 Z M 55.957 6.83594 C 62.793 6.83594 68.2617 2.14844 68.2617 -4.93164 C 68.2617 -11.8652 62.793 -16.9434 55.957 -16.9434 C 48.9746 -16.9434 43.75 -11.8652 43.75 -4.93164 C 43.75 2.14844 48.9746 6.83594 55.957 6.83594 Z"/>
  </g>
  <g id="Heavy-M" transform="matrix(1 0 0 1 2581.44 1126)">
   <path d="M 55.1758 -53.2227 C 61.377 -53.2227 66.3086 -57.5195 66.3086 -63.8672 C 66.3086 -70.166 61.377 -74.8047 55.1758 -74.8047 C 48.9258 -74.8047 44.1895 -70.166 44.1895 -63.8672 C 44.1895 -57.5195 48.9258 -53.2227 55.1758 -53.2227 Z M 21.7285 -25.7324 L 88.7695 -25.7324 C 93.7012 -25.7324 98.0469 -30.0293 98.0469 -35.2051 C 98.0469 -40.332 93.7012 -44.6777 88.7695 -44.6777 L 21.7285 -44.6777 C 17.041 -44.6777 12.4512 -40.332 12.4512 -35.2051 C 12.4512 -30.0293 17.041 -25.7324 21.7285 -25.7324 Z M 55.1758 5.46875 C 61.377 5.46875 66.3086 1.07422 66.3086 -5.27344 C 66.3086 -11.4746 61.377 -16.1621 55.1758 -16.1621 C 48.9258 -16.1621 44.1895 -11.4746 44.1895 -5.27344 C 44.1895 1.07422 48.9258 5.46875 55.1758 5.46875 Z"/>
  </g>
  <g id="Bold-M" transform="matrix(1 0 0 1 2285.61 1126)">
   <path d="M 54.3457 -54.3457 C 59.7656 -54.3457 64.1113 -58.3008 64.1113 -63.8184 C 64.1113 -69.3359 59.7656 -73.4863 54.3457 -73.4863 C 48.877 -73.4863 44.6289 -69.3359 44.6289 -63.8184 C 44.6289 -58.3008 48.877 -54.3457 54.3457 -54.3457 Z M 20.0195 -27.4902 L 88.7207 -27.4902 C 92.7734 -27.4902 96.2891 -31.0059 96.2891 -35.2051 C 96.2891 -39.4043 92.7734 -42.9199 88.7207 -42.9199 L 20.0195 -42.9199 C 16.1621 -42.9199 12.4512 -39.4043 12.4512 -35.2051 C 12.4512 -31.0059 16.1621 -27.4902 20.0195 -27.4902 Z M 54.3457 3.85742 C 59.7656 3.85742 64.1113 -0.0976562 64.1113 -5.66406 C 64.1113 -11.084 59.7656 -15.2344 54.3457 -15.2344 C 48.877 -15.2344 44.6289 -11.084 44.6289 -5.66406 C 44.6289 -0.0976562 48.877 3.85742 54.3457 3.85742 Z"/>
  </g>
  <g id="Semibold-M" transform="matrix(1 0 0 1 1989.48 1126)">
   <path d="M 53.7598 -55.1758 C 58.6914 -55.1758 62.5977 -58.8379 62.5977 -63.8184 C 62.5977 -68.75 58.6914 -72.5586 53.7598 -72.5586 C 48.8281 -72.5586 44.9707 -68.75 44.9707 -63.8184 C 44.9707 -58.8379 48.8281 -55.1758 53.7598 -55.1758 Z M 18.8477 -28.7109 L 88.7207 -28.7109 C 92.1387 -28.7109 95.1172 -31.6406 95.1172 -35.2051 C 95.1172 -38.7207 92.1387 -41.6992 88.7207 -41.6992 L 18.8477 -41.6992 C 15.5273 -41.6992 12.4512 -38.7207 12.4512 -35.2051 C 12.4512 -31.6406 15.5273 -28.7109 18.8477 -28.7109 Z M 53.7598 2.7832 C 58.6914 2.7832 62.5977 -0.927734 62.5977 -5.9082 C 62.5977 -10.791 58.6914 -14.5996 53.7598 -14.5996 C 48.8281 -14.5996 44.9707 -10.791 44.9707 -5.9082 C 44.9707 -0.927734 48.8281 2.7832 53.7598 2.7832 Z"/>
  </g>
  <g id="Medium-M" transform="matrix(1 0 0 1 1693.24 1126)">
   <path d="M 53.3203 -55.7617 C 57.8125 -55.7617 61.4746 -59.2773 61.4746 -63.7695 C 61.4746 -68.3105 57.8125 -71.875 53.3203 -71.875 C 48.8281 -71.875 45.2148 -68.3105 45.2148 -63.7695 C 45.2148 -59.2773 48.8281 -55.7617 53.3203 -55.7617 Z M 17.9688 -29.6387 L 88.6719 -29.6387 C 91.6504 -29.6387 94.1895 -32.1289 94.1895 -35.2051 C 94.1895 -38.2324 91.6504 -40.7715 88.6719 -40.7715 L 17.9688 -40.7715 C 15.0879 -40.7715 12.4512 -38.2324 12.4512 -35.2051 C 12.4512 -32.1289 15.0879 -29.6387 17.9688 -29.6387 Z M 53.3203 1.95312 C 57.8125 1.95312 61.4746 -1.5625 61.4746 -6.10352 C 61.4746 -10.5957 57.8125 -14.1602 53.3203 -14.1602 C 48.8281 -14.1602 45.2148 -10.5957 45.2148 -6.10352 C 45.2148 -1.5625 48.8281 1.95312 53.3203 1.95312 Z"/>
  </g>
  <g id="Regular-M" transform="matrix(1 0 0 1 1397.11 1126)">
   <path d="M 52.7344 -56.543 C 56.7383 -56.543 59.9609 -59.8145 59.9609 -63.7207 C 59.9609 -67.7246 56.7383 -70.9473 52.7344 -70.9473 C 48.7793 -70.9473 45.5566 -67.7246 45.5566 -63.7207 C 45.5566 -59.8145 48.7793 -56.543 52.7344 -56.543 Z M 16.7969 -30.8105 L 88.6719 -30.8105 C 91.0156 -30.8105 93.0176 -32.8125 93.0176 -35.2051 C 93.0176 -37.5977 91.0156 -39.5508 88.6719 -39.5508 L 16.7969 -39.5508 C 14.4531 -39.5508 12.4512 -37.5977 12.4512 -35.2051 C 12.4512 -32.8125 14.4531 -30.8105 16.7969 -30.8105 Z M 52.7344 0.878906 C 56.7383 0.878906 59.9609 -2.34375 59.9609 -6.34766 C 59.9609 -10.3027 56.7383 -13.5254 52.7344 -13.5254 C 48.7793 -13.5254 45.5566 -10.3027 45.5566 -6.34766 C 45.5566 -2.34375 48.7793 0.878906 52.7344 0.878906 Z"/>
  </g>
  <g id="Light-M" transform="matrix(1 0 0 1 1101.13 1126)">
   <path d="M 52.002 -56.8848 C 55.4199 -56.8848 58.2031 -59.7168 58.2031 -63.0371 C 58.2031 -66.4551 55.4199 -69.2871 52.002 -69.2871 C 48.6328 -69.2871 45.8496 -66.4551 45.8496 -63.0371 C 45.8496 -59.7168 48.6328 -56.8848 52.002 -56.8848 Z M 15.7715 -31.8359 L 88.2812 -31.8359 C 90.0391 -31.8359 91.5527 -33.3496 91.5527 -35.1562 C 91.5527 -36.9629 90.0391 -38.4766 88.2812 -38.4766 L 15.7715 -38.4766 C 13.9648 -38.4766 12.4512 -36.9629 12.4512 -35.1562 C 12.4512 -33.3496 13.9648 -31.8359 15.7715 -31.8359 Z M 52.002 -0.878906 C 55.4199 -0.878906 58.2031 -3.66211 58.2031 -7.08008 C 58.2031 -10.4004 55.4199 -13.2324 52.002 -13.2324 C 48.6328 -13.2324 45.8496 -10.4004 45.8496 -7.08008 C 45.8496 -3.66211 48.6328 -0.878906 52.002 -0.878906 Z"/>
  </g>
  <g id="Thin-M" transform="matrix(1 0 0 1 805.372 1126)">
   <path d="M 51.0254 -57.373 C 53.6621 -57.373 55.9082 -59.5703 55.9082 -62.1094 C 55.9082 -64.7461 53.6621 -67.041 51.0254 -67.041 C 48.4375 -67.041 46.2402 -64.7461 46.2402 -62.1094 C 46.2402 -59.5703 48.4375 -57.373 51.0254 -57.373 Z M 14.3555 -33.252 L 87.7441 -33.252 C 88.7695 -33.252 89.6484 -34.082 89.6484 -35.1562 C 89.6484 -36.1816 88.7695 -37.0605 87.7441 -37.0605 L 14.3555 -37.0605 C 13.3301 -37.0605 12.4512 -36.1816 12.4512 -35.1562 C 12.4512 -34.082 13.3301 -33.252 14.3555 -33.252 Z M 51.0254 -3.17383 C 53.6621 -3.17383 55.9082 -5.41992 55.9082 -8.05664 C 55.9082 -10.5469 53.6621 -12.8906 51.0254 -12.8906 C 48.4375 -12.8906 46.2402 -10.5469 46.2402 -8.05664 C 46.2402 -5.41992 48.4375 -3.17383 51.0254 -3.17383 Z"/>
  </g>
  <g id="Ultralight-M" transform="matrix(1 0 0 1 509.15 1126)">
   <path d="M 50.5371 -57.5684 C 52.7832 -57.5684 54.7363 -59.5215 54.7363 -61.6699 C 54.7363 -63.8672 52.7832 -65.8691 50.5371 -65.8691 C 48.3398 -65.8691 46.4355 -63.8672 46.4355 -61.6699 C 46.4355 -59.5215 48.3398 -57.5684 50.5371 -57.5684 Z M 13.623 -33.9355 L 87.4512 -33.9355 C 88.1348 -33.9355 88.6719 -34.4727 88.6719 -35.1562 C 88.6719 -35.791 88.1348 -36.3281 87.4512 -36.3281 L 13.623 -36.3281 C 12.9883 -36.3281 12.4512 -35.791 12.4512 -35.1562 C 12.4512 -34.4727 12.9883 -33.9355 13.623 -33.9355 Z M 50.5371 -4.39453 C 52.7832 -4.39453 54.7363 -6.29883 54.7363 -8.54492 C 54.7363 -10.6445 52.7832 -12.6953 50.5371 -12.6953 C 48.3398 -12.6953 46.4355 -10.6445 46.4355 -8.54492 C 46.4355 -6.29883 48.3398 -4.39453 50.5371 -4.39453 Z"/>
  </g>
  <g id="Black-S" transform="matrix(1 0 0 1 2889.55 696)">
   <path d="M 43.7988 -48.584 C 49.1211 -48.584 53.3691 -52.1973 53.3691 -57.7148 C 53.3691 -63.1348 49.1211 -67.0898 43.7988 -67.0898 C 38.3789 -67.0898 34.3262 -63.1348 34.3262 -57.7148 C 34.3262 -52.1973 38.3789 -48.584 43.7988 -48.584 Z M 18.1152 -26.6602 L 69.5801 -26.6602 C 74.0234 -26.6602 77.9297 -30.5664 77.9297 -35.2051 C 77.9297 -39.8438 74.0234 -43.75 69.5801 -43.75 L 18.1152 -43.75 C 13.916 -43.75 9.76562 -39.8438 9.76562 -35.2051 C 9.76562 -30.5664 13.916 -26.6602 18.1152 -26.6602 Z M 43.7988 -2.34375 C 49.1211 -2.34375 53.3691 -6.00586 53.3691 -11.5234 C 53.3691 -16.8945 49.1211 -20.8496 43.7988 -20.8496 C 38.3789 -20.8496 34.3262 -16.8945 34.3262 -11.5234 C 34.3262 -6.00586 38.3789 -2.34375 43.7988 -2.34375 Z"/>
  </g>
  <g id="Heavy-S" transform="matrix(1 0 0 1 2593.35 696)">
   <path d="M 43.3105 -49.3164 C 48.1934 -49.3164 52.0508 -52.7344 52.0508 -57.7637 C 52.0508 -62.6953 48.1934 -66.3574 43.3105 -66.3574 C 38.3789 -66.3574 34.6191 -62.6953 34.6191 -57.7637 C 34.6191 -52.7344 38.3789 -49.3164 43.3105 -49.3164 Z M 17.0898 -27.7344 L 69.5801 -27.7344 C 73.4863 -27.7344 76.9043 -31.1523 76.9043 -35.2051 C 76.9043 -39.2578 73.4863 -42.6758 69.5801 -42.6758 L 17.0898 -42.6758 C 13.3789 -42.6758 9.76562 -39.2578 9.76562 -35.2051 C 9.76562 -31.1523 13.3789 -27.7344 17.0898 -27.7344 Z M 43.3105 -3.22266 C 48.1934 -3.22266 52.0508 -6.68945 52.0508 -11.6699 C 52.0508 -16.6016 48.1934 -20.2637 43.3105 -20.2637 C 38.3789 -20.2637 34.6191 -16.6016 34.6191 -11.6699 C 34.6191 -6.68945 38.3789 -3.22266 43.3105 -3.22266 Z"/>
  </g>
  <g id="Bold-S" transform="matrix(1 0 0 1 2297.2 696)">
   <path d="M 42.7246 -50.1953 C 47.1191 -50.1953 50.5859 -53.3691 50.5859 -57.8125 C 50.5859 -62.207 47.1191 -65.5762 42.7246 -65.5762 C 38.3301 -65.5762 34.9121 -62.207 34.9121 -57.8125 C 34.9121 -53.3691 38.3301 -50.1953 42.7246 -50.1953 Z M 15.918 -28.9551 L 69.6289 -28.9551 C 72.9004 -28.9551 75.7812 -31.7871 75.7812 -35.2051 C 75.7812 -38.623 72.9004 -41.4551 69.6289 -41.4551 L 15.918 -41.4551 C 12.7441 -41.4551 9.76562 -38.623 9.76562 -35.2051 C 9.76562 -31.7871 12.7441 -28.9551 15.918 -28.9551 Z M 42.7246 -4.19922 C 47.1191 -4.19922 50.5859 -7.42188 50.5859 -11.8652 C 50.5859 -16.2598 47.1191 -19.6289 42.7246 -19.6289 C 38.3301 -19.6289 34.9121 -16.2598 34.9121 -11.8652 C 34.9121 -7.42188 38.3301 -4.19922 42.7246 -4.19922 Z"/>
  </g>
  <g id="Semibold-S" transform="matrix(1 0 0 1 2000.88 696)">
   <path d="M 42.334 -50.7324 C 46.3867 -50.7324 49.6094 -53.8086 49.6094 -57.8613 C 49.6094 -61.9141 46.3867 -64.9902 42.334 -64.9902 C 38.3301 -64.9902 35.1562 -61.9141 35.1562 -57.8613 C 35.1562 -53.8086 38.3301 -50.7324 42.334 -50.7324 Z M 15.0879 -29.7852 L 69.6289 -29.7852 C 72.5098 -29.7852 75 -32.2754 75 -35.2051 C 75 -38.1348 72.5098 -40.625 69.6289 -40.625 L 15.0879 -40.625 C 12.3535 -40.625 9.76562 -38.1348 9.76562 -35.2051 C 9.76562 -32.2754 12.3535 -29.7852 15.0879 -29.7852 Z M 42.334 -4.88281 C 46.3867 -4.88281 49.6094 -7.95898 49.6094 -12.0117 C 49.6094 -16.0645 46.3867 -19.1406 42.334 -19.1406 C 38.3301 -19.1406 35.1562 -16.0645 35.1562 -12.0117 C 35.1562 -7.95898 38.3301 -4.88281 42.334 -4.88281 Z"/>
  </g>
  <g id="Medium-S" transform="matrix(1 0 0 1 1704.49 696)">
   <path d="M 42.041 -51.1719 C 45.8496 -51.1719 48.8281 -54.1016 48.8281 -57.8613 C 48.8281 -61.6699 45.8496 -64.5996 42.041 -64.5996 C 38.3301 -64.5996 35.3027 -61.6699 35.3027 -57.8613 C 35.3027 -54.1016 38.3301 -51.1719 42.041 -51.1719 Z M 14.502 -30.4199 L 69.6289 -30.4199 C 72.168 -30.4199 74.3652 -32.6172 74.3652 -35.2051 C 74.3652 -37.793 72.168 -39.9902 69.6289 -39.9902 L 14.502 -39.9902 C 12.0117 -39.9902 9.76562 -37.793 9.76562 -35.2051 C 9.76562 -32.6172 12.0117 -30.4199 14.502 -30.4199 Z M 42.041 -5.41992 C 45.8496 -5.41992 48.8281 -8.34961 48.8281 -12.1094 C 48.8281 -15.8691 45.8496 -18.7988 42.041 -18.7988 C 38.3301 -18.7988 35.3027 -15.8691 35.3027 -12.1094 C 35.3027 -8.34961 38.3301 -5.41992 42.041 -5.41992 Z"/>
  </g>
  <g id="Regular-S" transform="matrix(1 0 0 1 1408.17 696)">
   <path d="M 41.6992 -51.7578 C 45.1172 -51.7578 47.8027 -54.541 47.8027 -57.9102 C 47.8027 -61.3281 45.1172 -64.0625 41.6992 -64.0625 C 38.3301 -64.0625 35.5469 -61.3281 35.5469 -57.9102 C 35.5469 -54.541 38.3301 -51.7578 41.6992 -51.7578 Z M 13.7207 -31.25 L 69.6777 -31.25 C 71.7773 -31.25 73.584 -33.0566 73.584 -35.2051 C 73.584 -37.3535 71.7773 -39.1602 69.6777 -39.1602 L 13.7207 -39.1602 C 11.5723 -39.1602 9.76562 -37.3535 9.76562 -35.2051 C 9.76562 -33.0566 11.5723 -31.25 13.7207 -31.25 Z M 41.6992 -6.10352 C 45.1172 -6.10352 47.8027 -8.83789 47.8027 -12.207 C 47.8027 -15.625 45.1172 -18.3594 41.6992 -18.3594 C 38.3301 -18.3594 35.5469 -15.625 35.5469 -12.207 C 35.5469 -8.83789 38.3301 -6.10352 41.6992 -6.10352 Z"/>
  </g>
  <g id="Light-S" transform="matrix(1 0 0 1 1112.09 696)">
   <path d="M 41.0156 -52.0508 C 43.9453 -52.0508 46.2891 -54.4434 46.2891 -57.2754 C 46.2891 -60.1562 43.9453 -62.5488 41.0156 -62.5488 C 38.1836 -62.5488 35.791 -60.1562 35.791 -57.2754 C 35.791 -54.4434 38.1836 -52.0508 41.0156 -52.0508 Z M 12.7441 -32.1777 L 69.3359 -32.1777 C 70.9473 -32.1777 72.3145 -33.5449 72.3145 -35.2051 C 72.3145 -36.8164 70.9473 -38.1836 69.3359 -38.1836 L 12.7441 -38.1836 C 11.1328 -38.1836 9.76562 -36.8164 9.76562 -35.2051 C 9.76562 -33.5449 11.1328 -32.1777 12.7441 -32.1777 Z M 41.0156 -7.61719 C 43.9453 -7.61719 46.2891 -10.0098 46.2891 -12.8906 C 46.2891 -15.7227 43.9453 -18.1152 41.0156 -18.1152 C 38.1836 -18.1152 35.791 -15.7227 35.791 -12.8906 C 35.791 -10.0098 38.1836 -7.61719 41.0156 -7.61719 Z"/>
  </g>
  <g id="Thin-S" transform="matrix(1 0 0 1 816.237 696)">
   <path d="M 40.1855 -52.4902 C 42.3828 -52.4902 44.2383 -54.3457 44.2383 -56.4941 C 44.2383 -58.6914 42.3828 -60.5957 40.1855 -60.5957 C 37.9883 -60.5957 36.1328 -58.6914 36.1328 -56.4941 C 36.1328 -54.3457 37.9883 -52.4902 40.1855 -52.4902 Z M 11.5234 -33.3984 L 68.8477 -33.3984 C 69.8242 -33.3984 70.6055 -34.1797 70.6055 -35.1562 C 70.6055 -36.1328 69.8242 -36.9141 68.8477 -36.9141 L 11.5234 -36.9141 C 10.5957 -36.9141 9.76562 -36.1328 9.76562 -35.1562 C 9.76562 -34.1797 10.5957 -33.3984 11.5234 -33.3984 Z M 40.1855 -9.66797 C 42.3828 -9.66797 44.2383 -11.5234 44.2383 -13.7695 C 44.2383 -15.8691 42.3828 -17.7734 40.1855 -17.7734 C 37.9883 -17.7734 36.1328 -15.8691 36.1328 -13.7695 C 36.1328 -11.5234 37.9883 -9.66797 40.1855 -9.66797 Z"/>
  </g>
  <g id="Ultralight-S" transform="matrix(1 0 0 1 519.965 696)">
   <path d="M 39.7461 -52.6855 C 41.6016 -52.6855 43.2129 -54.248 43.2129 -56.0547 C 43.2129 -57.9102 41.6016 -59.5703 39.7461 -59.5703 C 37.8906 -59.5703 36.3281 -57.9102 36.3281 -56.0547 C 36.3281 -54.248 37.8906 -52.6855 39.7461 -52.6855 Z M 10.8887 -34.0332 L 68.6035 -34.0332 C 69.2383 -34.0332 69.7266 -34.5215 69.7266 -35.1562 C 69.7266 -35.791 69.2383 -36.2793 68.6035 -36.2793 L 10.8887 -36.2793 C 10.2539 -36.2793 9.76562 -35.791 9.76562 -35.1562 C 9.76562 -34.5215 10.2539 -34.0332 10.8887 -34.0332 Z M 39.7461 -10.7422 C 41.6016 -10.7422 43.2129 -12.3047 43.2129 -14.209 C 43.2129 -15.9668 41.6016 -17.627 39.7461 -17.627 C 37.8906 -17.627 36.3281 -15.9668 36.3281 -14.209 C 36.3281 -12.3047 37.8906 -10.7422 39.7461 -10.7422 Z"/>
  </g>
 </g>
</svg>
